<svg width="16" height="16" viewBox="0 0 16 16" fill="none" xmlns="http://www.w3.org/2000/svg">
<path d="M8.00002 0.666656C6.54963 0.666656 5.1318 1.09675 3.92584 1.90255C2.71988 2.70834 1.77995 3.85365 1.22491 5.19364C0.669864 6.53364 0.52464 8.00812 0.807598 9.43065C1.09056 10.8532 1.78899 12.1599 2.81457 13.1854C3.84016 14.211 5.14683 14.9095 6.56936 15.1924C7.99189 15.4754 9.46638 15.3301 10.8064 14.7751C12.1464 14.2201 13.2917 13.2801 14.0975 12.0742C14.9033 10.8682 15.3334 9.45039 15.3334 7.99999C15.3311 6.05577 14.5577 4.19184 13.1829 2.81707C11.8082 1.4423 9.94424 0.66895 8.00002 0.666656ZM10.4714 10.4713C10.3463 10.5963 10.1768 10.6665 10 10.6665C9.82325 10.6665 9.65371 10.5963 9.52869 10.4713L7.52869 8.47132C7.40366 8.34633 7.3334 8.17679 7.33336 7.99999V3.99999C7.33336 3.82318 7.40359 3.65361 7.52862 3.52859C7.65364 3.40356 7.82321 3.33332 8.00002 3.33332C8.17683 3.33332 8.3464 3.40356 8.47143 3.52859C8.59645 3.65361 8.66669 3.82318 8.66669 3.99999V7.72399L10.4714 9.52866C10.5963 9.65367 10.6665 9.82321 10.6665 9.99999C10.6665 10.1768 10.5963 10.3463 10.4714 10.4713Z" fill="#929292"/>
</svg>
